<?xml version="1.0" encoding="utf-8"?>
<!-- Generator: Adobe Illustrator 17.0.0, SVG Export Plug-In . SVG Version: 6.00 Build 0)  -->
<!DOCTYPE svg PUBLIC "-//W3C//DTD SVG 1.1//EN" "http://www.w3.org/Graphics/SVG/1.1/DTD/svg11.dtd">
<svg version="1.1" id="Calque_1" xmlns="http://www.w3.org/2000/svg" xmlns:xlink="http://www.w3.org/1999/xlink" x="0px" y="0px"
	 width="85.039px" height="85.039px" viewBox="0 0 85.039 85.039" enable-background="new 0 0 85.039 85.039" xml:space="preserve">
<circle fill="none" stroke="#F4110B" stroke-width="5.6693" stroke-miterlimit="10" cx="42" cy="42.89" r="38"/>
<path d="M27.32,62.313c-3.233-0.24-4.251-5.856-1.357-7.405c0.283-0.152,0.887-1.268,1.125-1.503
	c0.69-0.683,1.427-1.348,2.071-2.077c0.858-0.972,2.299-1.277,3.26-2.026c0.626-0.489,2.182-1.583,3.004-1.483
	c0.216,0.027,1.939-0.578,1.965-0.611c0.175-0.225,2.309-0.639,2.673-0.639c2.226,0,4.382,0.366,6.524,0.394
	c0.63,0.008,4.02,0.786,4.458,1.458c0.498,0.762,2.222,1.008,2.921,1.673c1.24,1.178,2.656,2.229,3.929,3.511
	c1.015,1.022,1.527,2.181,2.362,3.186c1.478,1.778-0.128,3.549-1.285,4.802c-1.23,1.333-3.293,1.116-4.968,1.116
	c-3.32,0-6.64,0-9.96,0c-2.951,0-5.902,0-8.854,0C33.673,62.709,28.296,63.609,27.32,62.313
	C27.008,62.29,27.524,62.584,27.32,62.313z"/>
<path d="M59.186,36.588c-0.848,0.078-1.711,0.065-2.56,0.054c-0.418-0.003-0.836-0.017-1.254-0.041
	c-0.201-0.219-0.574-0.778-0.914-0.787c-0.768-0.021-1.863-1.575-2.38-2.066c-0.51-0.484-0.329-1.68-0.763-2.009
	c-0.775-0.588,0.045-3.25,0.506-3.862c0.554-0.736,0.988-1.432,1.651-2.104c0.275-0.279,1.519-0.526,1.667-0.834
	c0.355-0.738,3.079-0.278,3.749-0.275c0.562,0.002,0.996,0.751,1.568,0.807c1.432,0.139,2.632,2.923,2.965,3.994
	c0.574,1.843-0.638,3.437-1.379,4.983C61.525,35.525,59.98,35.761,59.186,36.588C58.423,36.658,59.377,36.389,59.186,36.588z"/>
<path d="M27.775,24.671c2.271,0,3.153,0.751,4.741,2.329c1.489,1.481,1.088,3.62,0.812,5.399c-0.145,0.938-1.43,3.327-2.613,3.412
	c-1.027,0.074-3.996,2.123-4.941,0.538c-0.189-0.316-1.252-0.474-1.547-0.703c-0.698-0.543-1.472-1.281-1.741-2.104
	c-0.109-0.332-0.695-1.674-0.961-1.84c-0.944-0.589,0.05-1.883,0.181-2.528c0.273-1.347,1.143-2.08,1.719-3.046
	C23.74,25.599,27.775,23.869,27.775,24.671C28.403,24.671,27.775,24.67,27.775,24.671z"/>
</svg>
