<?xml version="1.0" encoding="utf-8"?>
<!-- Generator: Adobe Illustrator 17.0.0, SVG Export Plug-In . SVG Version: 6.00 Build 0)  -->
<!DOCTYPE svg PUBLIC "-//W3C//DTD SVG 1.1//EN" "http://www.w3.org/Graphics/SVG/1.1/DTD/svg11.dtd">
<svg version="1.1" id="Calque_1" xmlns="http://www.w3.org/2000/svg" xmlns:xlink="http://www.w3.org/1999/xlink" x="0px" y="0px"
	 width="85.039px" height="85.039px" viewBox="0 0 85.039 85.039" enable-background="new 0 0 85.039 85.039" xml:space="preserve">
<circle fill="none" stroke="#FBAF1E" stroke-width="5.6693" stroke-miterlimit="10" cx="42" cy="42.89" r="38"/>
<path d="M56.006,47.007c0.525,0.633,0.4,0.093,1.186,0.46c0.551,0.257,0.948,0.938,1.412,1.32c0.122,0.515,0.839,1.356,0.841,1.955
	c0.008,1.966-1.304,2.951-2.654,4.047c-2.524,0.164-5.1,0.031-7.627,0.035c-7.597,0.011-15.202,0.101-22.798-0.03
	c-1.01-0.017-2.441-1.739-2.444-2.717c-0.001-0.405-0.311-0.43-0.375-0.751c-0.391-1.985,0.148-0.155,0.36-1.346
	c0.174-0.98,0.878-1.79,1.702-2.408c1.647-1.235,5.285-0.595,7.262-0.599c7.629-0.017,15.269-0.114,22.898,0.028
	C55.849,47.002,55.928,47.002,56.006,47.007C56.09,47.108,55.113,46.947,56.006,47.007z"/>
<path d="M50.763,30.595c0.001-6.334,9.111-7.579,10.817-1.62c0.581,2.03-0.324,6.645-3.384,6.828
	c-0.907,0.054-1.869,0.411-2.923,0.402c-0.35-0.003-1.823-0.82-2.07-1.081C51.697,33.531,50.762,32.803,50.763,30.595z"/>
<path d="M26.575,25.072c7.327,0,7.221,11.136,0.035,11.138c-3.633,0.001-5.592-3.359-5.597-6.629
	c-0.001-0.681,1.344-2.65,1.775-3.16C23.051,26.11,26.575,24.45,26.575,25.072C27.004,25.072,26.575,25.075,26.575,25.072z"/>
</svg>
