<?xml version="1.0" encoding="utf-8"?>
<!-- Generator: Adobe Illustrator 17.0.0, SVG Export Plug-In . SVG Version: 6.00 Build 0)  -->
<!DOCTYPE svg PUBLIC "-//W3C//DTD SVG 1.1//EN" "http://www.w3.org/Graphics/SVG/1.1/DTD/svg11.dtd">
<svg version="1.1" id="Calque_1" xmlns="http://www.w3.org/2000/svg" xmlns:xlink="http://www.w3.org/1999/xlink" x="0px" y="0px"
	 width="85.039px" height="85.039px" viewBox="0 0 85.039 85.039" enable-background="new 0 0 85.039 85.039" xml:space="preserve">
<circle fill="none" stroke="#F9430F" stroke-width="5.6693" stroke-miterlimit="10" cx="42.333" cy="42.89" r="38"/>
<path d="M60.205,57.542c0,1.665,0.15,2.316-1.045,3.503c-0.527,0.524-0.72,1.519-1.698,1.637c-0.399,0.048-1.77,0.762-2.11,0.298
	c-0.111-0.151-2.128-1.14-2.237-1.15c-0.162-0.015-1.564-1.857-1.571-2.052c-0.033-0.994-1.918-1.724-2.515-2.27
	c-1.304-1.192-3.2-1.633-4.816-2.247c-1.05-0.399-3.031-0.016-4.163-0.016c-0.29,0-3.001,1.08-2.992,1.063
	c-0.273,0.538-1.977,0.72-2.471,1.213c-0.487,0.487-2.442,1.868-2.458,2.58c-0.018,0.805-3.696,4.098-4.499,2.855
	c-0.301-0.467-1.935-0.678-2.432-1.194c-1.109-1.153-1.341-2.188-1.356-3.818c-0.014-1.513,1.874-3.045,2.574-4.251
	c0.503-0.341,1.65-2.156,2.235-2.136c0.591,0.021,2.002-1.303,2.476-1.724c1.023-0.909,2.612-0.973,3.649-1.641
	c0.782-0.504,1.363-0.776,2.31-0.787c0.632-0.008,3.051-0.257,3.422-0.742c0.743-0.97,5.74,0.727,6.848,0.744
	c0.975,0.015,1.627,0.782,2.595,0.833c0.651,0.035,1.208,1.035,1.711,1.151C55.673,50.314,57.76,54.743,60.205,57.542
	C60.205,58.357,60.022,57.332,60.205,57.542z"/>
<path d="M55.036,24.689c1.852-0.082,3.46-0.131,5.015,0.885c0.89,0.581,2.62,2.415,2.627,3.591c0.003,0.44,0.283,2.576-0.105,2.836
	c-0.163,0.11-1.103,2.091-1.105,2.137c-0.035,0.743-2.93,2.474-3.658,2.484c-2.13,0.028-3.576-0.345-5.078-1.91
	c-0.728-0.758-1.951-2.201-1.982-3.347c-0.02-0.723,0.221-3.479,1.077-3.854C52.763,26.067,53.877,25.858,55.036,24.689
	C56.386,24.629,54.796,24.931,55.036,24.689z"/>
<path d="M32.086,27.276c0.087,0.802,1.909,3.42,1.087,3.962c-0.108,0.071-0.633,1.463-0.637,1.656
	c-0.013,0.608-0.812,1.438-1.181,1.84c-2.222,2.425-5.243,2.085-7.839,0.562c-0.658-0.386-2.118-2.326-2.119-3.193
	c-0.002-3.283,0.172-4.13,2.499-6.473C26.674,22.833,29.876,25.664,32.086,27.276C32.103,27.426,31.537,26.875,32.086,27.276z"/>
</svg>
