<?xml version="1.0" encoding="utf-8"?>
<!-- Generator: Adobe Illustrator 17.0.0, SVG Export Plug-In . SVG Version: 6.00 Build 0)  -->
<!DOCTYPE svg PUBLIC "-//W3C//DTD SVG 1.1//EN" "http://www.w3.org/Graphics/SVG/1.1/DTD/svg11.dtd">
<svg version="1.1" id="Calque_1" xmlns="http://www.w3.org/2000/svg" xmlns:xlink="http://www.w3.org/1999/xlink" x="0px" y="0px"
	 width="85.039px" height="85.039px" viewBox="0 0 85.039 85.039" enable-background="new 0 0 85.039 85.039" xml:space="preserve">
<circle fill="none" stroke="#75C25B" stroke-width="5.6693" stroke-miterlimit="10" cx="42.667" cy="42.89" r="38"/>
<path d="M24.163,49.672c0.934-0.951,1.854-2.727,3.493-2.707c2.38,0.029,3.31,1.641,4.864,3.224c2.62,2.669,5.717,4.633,9.619,4.632
	c1.835,0,3.695-0.653,5.395-1.271c2.271-0.826,3.528-3.118,5.128-4.692c1.74-1.711,3.81-2.771,5.833-0.8
	c0.666,0.649,1.266,1.587,1.589,2.455c0.433,1.164-0.726,1.636-0.768,2.581c-0.063,1.407-2.69,3.331-3.537,4.228
	c-0.504,0.534-1.793,1.841-2.515,2.03c-0.327,0.085-1.612,0.728-1.777,1.009c-0.341,0.58-3.083,1.467-3.749,1.487
	c-0.295,0.009-2.738,0.435-2.865,0.595c-0.654,0.828-4.272,0.265-5.263,0.266c-0.616,0.001-4.646-0.807-5.003-1.369
	c-0.285-0.449-1.869-0.946-2.423-1.186c-0.55-0.238-1.895-0.975-2.281-1.436c-0.544-0.65-1.188-0.944-1.839-1.424
	c-0.583-0.429-0.735-1.273-1.193-1.64C24.769,53.972,24.082,52.298,24.163,49.672C24.331,49.501,24.139,50.431,24.163,49.672z"/>
<path d="M54.931,25.09c1.307-0.03,3.854-0.833,4.829,0.682c0.842,1.308,2.789,1.777,2.81,3.779c0.028,2.661-0.937,4.983-3.464,6.18
	c-2.045,0.968-7.542,0.11-7.656-3.168c-0.021-0.609-0.373-1.08-0.396-1.538c-0.021-0.413,0.353-2.499,0.594-2.642
	c0.353-0.209,1.036-1.428,1.392-1.789C53.644,25.982,54.279,25.604,54.931,25.09C55.251,25.083,54.741,25.24,54.931,25.09z"/>
<path d="M23.905,25.918c1.019-0.135,1.061-0.85,2.245-0.849c0.288-0.177,0.593-0.316,0.914-0.418c0.26,0.125,0.513,0.262,0.76,0.411
	c1.296,0.054,2.513,0.622,3.447,1.563c2.265,2.281,1.903,5.751-0.28,7.94c-2.164,2.169-5.556,2.355-7.778,0.084
	c-0.531-0.543-1.528-1.775-1.527-2.609C21.687,28.853,21.945,28.231,23.905,25.918C23.998,25.906,23.417,26.495,23.905,25.918z"/>
</svg>
