<?xml version="1.0" encoding="utf-8"?>
<!-- Generator: Adobe Illustrator 17.0.0, SVG Export Plug-In . SVG Version: 6.00 Build 0)  -->
<!DOCTYPE svg PUBLIC "-//W3C//DTD SVG 1.1//EN" "http://www.w3.org/Graphics/SVG/1.1/DTD/svg11.dtd">
<svg version="1.1" id="Calque_1" xmlns="http://www.w3.org/2000/svg" xmlns:xlink="http://www.w3.org/1999/xlink" x="0px" y="0px"
	 width="85.039px" height="85.039px" viewBox="0 0 85.039 85.039" enable-background="new 0 0 85.039 85.039" xml:space="preserve">
<circle fill="#199540" cx="42.116" cy="43.004" r="38"/>
<path d="M33.615,61.527c-0.671-0.805-2.136-0.739-2.788-1.558c-0.887-1.113-2.698-1.754-3.653-2.834
	c-1.129-1.277-2.017-2.834-3.215-4.014c-0.039-0.743-0.488-1.315-0.422-2.022c0.053-0.575,0.776-1.37,0.795-1.984
	c0.011-0.351,0.96-0.725,1.226-0.953c0.957-0.821,1.622-0.642,2.926-0.642c3.304,0,6.609,0,9.913,0
	c6.262,0,12.551-0.168,18.809,0.039c1.006,0.696,2.719,2.358,2.672,3.695c-0.014,0.417-1.008,3.064-1.407,3.248
	c-1.357,0.626-2.968,2.81-3.951,3.962c-0.871,1.02-2.053,1.262-3.137,1.913c-1.253,0.753-2.123,1.397-3.579,1.603
	c-0.603,0.085-0.765,0.409-1.531,0.424c-0.392,0.008-3.184,0.411-3.291,0.56c-0.465,0.648-4.638,0.006-5.173-0.189
	C36.677,62.362,34.861,61.602,33.615,61.527C33.414,61.286,33.808,61.539,33.615,61.527z"/>
<path d="M21.068,28.672c0.575-0.556,0.675-1.088,1.187-1.604c0.329-0.331,1.883-1.329,2.002-1.579
	c0.411-0.864,3.894-1.187,4.269-0.453c0.544,1.064,3.112,0.84,3.271,2.738c0.136,0.389,0.402,0.685,0.797,0.888
	c0.047,0.843,0.03,1.686,0.028,2.529c-0.003,1.206-0.306,1.507-0.805,2.473c-0.631,1.221-1.485,1.802-2.717,2.295
	c-0.441,0.177-1.652,0.332-1.938,0.66c-0.176,0.203-2.334-0.368-2.358-0.414c-0.489-0.923-2.826-0.801-2.934-2.27
	c-0.055-0.746-0.8-1.255-0.825-2.015C21.008,30.842,20.991,29.748,21.068,28.672C21.28,28.467,21.01,29.494,21.068,28.672z"/>
<path d="M61.493,27.409c0.043,0.19,0.402,1.34,0.583,1.423c0.746,0.342,0.31,2.9,0.31,3.549c-0.772,0.848-1.486,2.941-2.684,3.182
	c-0.801,0.161-1.734,1.108-2.54,1.155c-1.539,0.089-3.269-0.514-4.407-1.543c-1.275-1.152-1.97-2.581-1.968-4.289
	c0.001-0.948,0.394-1.925,0.422-2.716c0.018-0.526,1.816-2.477,2.313-2.542c0.264-0.034,1.282-0.445,1.431-0.678
	c0.343-0.535,2.375-0.174,2.907-0.17C58.929,24.789,60.842,26.768,61.493,27.409C61.562,27.718,61.16,27.081,61.493,27.409z"/>
<g>
</g>
<g>
</g>
<g>
</g>
<g>
</g>
<g>
</g>
<g>
</g>
</svg>
