<?xml version="1.0" encoding="utf-8"?>
<!-- Generator: Adobe Illustrator 17.0.0, SVG Export Plug-In . SVG Version: 6.00 Build 0)  -->
<!DOCTYPE svg PUBLIC "-//W3C//DTD SVG 1.1//EN" "http://www.w3.org/Graphics/SVG/1.1/DTD/svg11.dtd">
<svg version="1.1" id="Layer_1" xmlns="http://www.w3.org/2000/svg" xmlns:xlink="http://www.w3.org/1999/xlink" x="0px" y="0px"
	 width="432px" height="288px" viewBox="0 0 432 288" enable-background="new 0 0 432 288" xml:space="preserve">
<g>
	<g>
		<defs>
			<rect id="SVGID_1_" x="0" y="0" width="432" height="288"/>
		</defs>
		<linearGradient id="SVGID_2_" gradientUnits="userSpaceOnUse" x1="182.7518" y1="67.4701" x2="278.5628" y2="288.0055">
			<stop  offset="0.4978" style="stop-color:#4D98E6;stop-opacity:0.6"/>
			<stop  offset="0.5603" style="stop-color:#549CE6;stop-opacity:0.6498"/>
			<stop  offset="0.6509" style="stop-color:#67A5E6;stop-opacity:0.7219"/>
			<stop  offset="0.7585" style="stop-color:#87B5E6;stop-opacity:0.8076"/>
			<stop  offset="0.8792" style="stop-color:#B3CCE6;stop-opacity:0.9038"/>
			<stop  offset="1" style="stop-color:#E6E6E6"/>
		</linearGradient>
		<use xlink:href="#SVGID_1_"  overflow="visible" fill="url(#SVGID_2_)"/>
		<clipPath id="SVGID_3_">
			<use xlink:href="#SVGID_1_"  overflow="visible"/>
		</clipPath>
		<linearGradient id="SVGID_4_" gradientUnits="userSpaceOnUse" x1="352.1949" y1="251.146" x2="352.1949" y2="164.2244">
			<stop  offset="0" style="stop-color:#FFFFFF;stop-opacity:0"/>
			<stop  offset="0.4003" style="stop-color:#FBFBFB;stop-opacity:0.4003"/>
			<stop  offset="0.7991" style="stop-color:#EFEFEF;stop-opacity:0.7991"/>
			<stop  offset="1" style="stop-color:#E6E6E6"/>
		</linearGradient>
		<path opacity="0.7" clip-path="url(#SVGID_3_)" fill="url(#SVGID_4_)" d="M499.465,221.578c0-2.045-7.226-3.71-16.367-3.851
			c0.001-0.053,0.007-0.105,0.007-0.161c0-3.695-2.758-6.685-6.159-6.685c-1.379,0-2.646,0.496-3.671,1.324
			c-0.016-0.03-0.033-0.057-0.049-0.085c-1.376-7.404-7.401-12.978-14.626-12.978c-1.233,0-2.424,0.18-3.569,0.485
			c-1.444-3.441-4.632-5.835-8.342-5.835c-2.714,0-5.145,1.285-6.823,3.319c-1.883-2.905-4.989-4.805-8.508-4.805
			c-0.513,0-1.013,0.053-1.505,0.131c0.346-1.369,0.547-2.804,0.547-4.291c0-8.947-6.681-16.196-14.923-16.196
			c-4.312,0-8.183,1.996-10.909,5.168c-1.974-4.962-6.521-8.438-11.817-8.438c-4.528,0-8.503,2.545-10.797,6.384
			c-1.551-2.673-4.286-4.451-7.41-4.451c-0.861,0-1.69,0.139-2.475,0.391c-1.98-4.033-5.891-6.779-10.394-6.779
			c-4.366,0-8.168,2.583-10.2,6.413c-0.16-0.009-0.318-0.026-0.479-0.026c-3.213,0-6.016,1.884-7.541,4.684
			c-2.703-2.802-6.359-4.534-10.392-4.534c-4.436,0-8.413,2.094-11.169,5.407c-3.869-3.024-8.615-4.812-13.747-4.812
			c-7.061,0-13.391,3.377-17.707,8.718c-1.702-0.822-3.582-1.29-5.566-1.29c-7.56,0-13.69,6.65-13.69,14.858
			c0,0.31,0.026,0.613,0.043,0.917c-0.714-0.203-1.46-0.323-2.234-0.323c-3.376,0-6.3,2.076-7.765,5.114
			c-1.782-0.982-3.79-1.547-5.924-1.547c-5.649,0-10.453,3.879-12.31,9.309c-0.362-0.058-0.73-0.096-1.105-0.096
			c-3.964,0-7.222,3.262-7.625,7.447c-0.105-0.007-0.21-0.016-0.316-0.016c-2.421,0-4.45,1.795-5.031,4.227
			c-0.59-0.042-1.194-0.069-1.815-0.069c-4.935,0-9.077,1.4-10.301,3.299c-0.395-0.018-0.792-0.028-1.199-0.028
			c-5.897,0-10.677,1.993-10.677,4.456c0,2.463,4.78,4.458,10.677,4.458c0.762,0,1.504-0.034,2.221-0.099
			c1.749,1.466,5.365,2.477,9.552,2.477c0.411,0,0.815-0.012,1.213-0.031c0.487,2.396,2.454,4.193,4.811,4.193
			c0.537,0,1.054-0.097,1.538-0.27c1.693,2.502,4.417,4.132,7.497,4.132c1.543,0,2.994-0.414,4.277-1.135
			c1.378,1.437,3.244,2.324,5.304,2.324c2.088,0,3.977-0.908,5.359-2.375c2.408,3.257,6.1,5.346,10.248,5.346
			c3.412,0,6.508-1.422,8.845-3.734c1.084,2.554,3.456,4.329,6.215,4.329c2.466,0,4.62-1.419,5.825-3.541
			c1.979,1.296,4.289,2.054,6.769,2.054c3.051,0,5.851-1.139,8.082-3.031c1.252,1.494,3.052,2.44,5.06,2.44
			c1.969,0,3.74-0.91,4.989-2.355c1.9,3.2,5.206,5.322,8.974,5.322c2.973,0,5.662-1.32,7.598-3.45
			c3.562,3.027,8.773,4.937,14.581,4.937c7.151,0,13.396-2.894,16.773-7.202c2.064,3.69,5.791,6.163,10.06,6.163
			c1.422,0,2.777-0.287,4.036-0.787c1.563,2.783,4.375,4.65,7.6,4.65c3.196,0,5.993-1.837,7.562-4.585
			c3.525,2.787,7.865,4.436,12.562,4.436c7.339,0,13.813-4.017,17.657-10.138c2.344,2.671,5.645,4.344,9.312,4.344
			c3.826,0,7.251-1.82,9.608-4.698c0.845,0.341,1.758,0.538,2.714,0.538c1.094,0,2.134-0.247,3.081-0.69
			c2.55,0.814,5.488,1.283,8.623,1.283c8.928,0,16.284-3.765,17.422-8.644c0.147,0.011,0.294,0.024,0.444,0.024
			c2.091,0,3.934-1.133,5.049-2.862c0.863,0.498,1.846,0.782,2.891,0.782c3.064,0,5.599-2.43,6.074-5.609
			C493.735,224.917,499.465,223.397,499.465,221.578z"/>
		<linearGradient id="SVGID_5_" gradientUnits="userSpaceOnUse" x1="220.122" y1="229.988" x2="220.122" y2="156.937">
			<stop  offset="0" style="stop-color:#FFFFFF;stop-opacity:0"/>
			<stop  offset="0.4003" style="stop-color:#FBFBFB;stop-opacity:0.4003"/>
			<stop  offset="0.7991" style="stop-color:#EFEFEF;stop-opacity:0.7991"/>
			<stop  offset="1" style="stop-color:#E6E6E6"/>
		</linearGradient>
		<path opacity="0.5" clip-path="url(#SVGID_3_)" fill="url(#SVGID_5_)" d="M365.829,207.943c-2.508-0.267-5.193-0.4-7.86-0.421
			c-0.111-1.409-0.907-2.737-2.243-3.461c-2.094-1.128-4.71-0.348-5.84,1.747c-0.501-7.236-20.581-11.414-24.027-4.637
			c-0.35-2.604-1.875-5.015-4.363-6.358c-4.125-2.223-9.275-0.688-11.501,3.439c-0.06,0.111-0.087,0.228-0.142,0.34
			c-1.257-0.292-2.533-0.489-3.818-0.587c0.411-2.351-0.667-4.803-2.885-6.003c-2.649-1.426-5.909-0.528-7.499,1.974
			c-0.878-0.719-1.832-1.369-2.868-1.929c-2.567-1.385-5.321-2.068-8.053-2.148c-1.479-3.968-4.332-7.445-8.35-9.614
			c-7.045-3.801-15.488-2.443-21.014,2.766c-0.019-3.45-1.826-6.785-5.076-8.539c-3.142-1.695-6.784-1.457-9.639,0.256
			c-0.74-4.643-3.541-8.905-8-11.312c-5.819-3.141-12.742-2.199-17.508,1.827c-1.331-2.689-3.467-5.009-6.309-6.543
			c-7.294-3.934-16.402-1.217-20.34,6.081c-0.164,0.304-0.299,0.616-0.441,0.927c-1.301-1.242-2.77-2.347-4.429-3.244
			c-10.002-5.395-22.49-1.667-27.888,8.337c-0.981,1.818-1.652,3.72-2.047,5.645c-5.526-0.078-10.908,2.834-13.712,8.035
			c-0.791,1.465-1.31,3.003-1.59,4.559c-3.25-0.69-6.62,0.288-8.996,2.599c-0.631-0.517-1.316-0.986-2.059-1.386
			c-6.091-3.288-13.636-1.173-17.178,4.687c-0.194-0.147-0.388-0.294-0.608-0.412c-2.295-1.239-5.161-0.383-6.4,1.913
			c-0.531,0.986-0.657,2.072-0.468,3.095c-0.608,0.143-1.204,0.336-1.78,0.581c-0.413-0.897-1.093-1.679-2.031-2.184
			c-2.295-1.238-5.162-0.381-6.399,1.915c-0.497,0.921-0.643,1.93-0.508,2.891c-0.79,0.175-1.551,0.429-2.264,0.786
			c-1.994-0.418-4.105,0.475-5.12,2.359c-0.106,0.196-0.176,0.402-0.254,0.606c-0.59-0.13-1.206-0.219-1.856-0.219
			c-2.296,0-4.28,0.877-5.371,2.171c-0.17-0.001-0.336-0.005-0.507-0.005c-6.454,0-11.683,1.003-11.683,2.243
			c0,1.238,5.229,2.243,11.683,2.243c0.172,0,0.338-0.004,0.505-0.006c1.093,1.296,3.077,2.172,5.373,2.172
			c1.297,0,2.502-0.278,3.501-0.753c0.81,1.464,2.099,2.729,3.821,3.563c2.539,1.232,5.425,1.238,7.889,0.299
			c0.685,0.646,1.453,1.221,2.32,1.689c3.417,1.845,7.373,1.685,10.538-0.064c0.805,0.865,1.754,1.619,2.852,2.21
			c5.008,2.706,11.162,1.173,14.372-3.356c0.845,2.492,2.587,4.685,5.085,6.032c5.17,2.796,11.593,0.925,14.493-4.148
			c1.754,2.407,4.038,4.479,6.832,5.986c8.801,4.759,19.519,2.429,25.646-5.01c1.178,2.031,2.9,3.779,5.119,4.975
			c6.392,3.455,14.374,1.067,17.825-5.326c0.051-0.094,0.087-0.191,0.135-0.285c0.861,2.61,2.672,4.911,5.281,6.317
			c5.415,2.929,12.176,0.904,15.1-4.511c0.198-0.367,0.369-0.743,0.523-1.12c1.635,2.488,3.891,4.618,6.695,6.13
			c8.64,4.671,19.32,1.764,24.491-6.412c1.085,1.711,2.604,3.18,4.513,4.209c5.01,2.707,11.058,1.543,14.758-2.445
			c0.432,0.282,0.869,0.559,1.332,0.807c6.999,3.783,15.368,2.464,20.895-2.656c6.981,2.161,15.07,1.078,20.31-2.461
			c3.518,0.602,7.221,0.627,10.649,0.144c0.659,0.768,1.451,1.445,2.396,1.954c4.126,2.231,9.275,0.69,11.503-3.437
			c0.018-0.035,0.028-0.073,0.047-0.11c4.92-0.265,9.474-1.232,12.372-2.771c7.574,0.292,15.547-0.4,19.408-1.807
			C377.913,211.039,374.629,208.878,365.829,207.943z"/>
		<linearGradient id="SVGID_6_" gradientUnits="userSpaceOnUse" x1="340.0031" y1="248.0583" x2="355.0209" y2="145.2608">
			<stop  offset="0" style="stop-color:#FFFFFF;stop-opacity:0"/>
			<stop  offset="0.4003" style="stop-color:#FBFBFB;stop-opacity:0.4003"/>
			<stop  offset="0.7991" style="stop-color:#EFEFEF;stop-opacity:0.7991"/>
			<stop  offset="1" style="stop-color:#E6E6E6"/>
		</linearGradient>
		<path opacity="0.9" clip-path="url(#SVGID_3_)" fill="url(#SVGID_6_)" d="M551.099,217.274c-3.566-0.38-7.384-0.568-11.178-0.599
			c-0.159-2.004-1.289-3.893-3.19-4.922c-2.978-1.604-6.698-0.495-8.305,2.484c-0.713-10.29-29.269-16.232-34.17-6.594
			c-0.498-3.703-2.667-7.132-6.205-9.041c-5.866-3.162-13.191-0.979-16.355,4.891c-0.085,0.157-0.123,0.324-0.202,0.484
			c-1.787-0.415-3.603-0.696-5.429-0.835c0.584-3.344-0.948-6.831-4.103-8.537c-3.767-2.029-8.403-0.751-10.665,2.807
			c-1.249-1.023-2.605-1.947-4.079-2.743c-3.65-1.97-7.568-2.941-11.452-3.055c-2.103-5.643-6.16-10.587-11.875-13.672
			c-10.019-5.406-22.026-3.474-29.885,3.934c-0.027-4.906-2.597-9.649-7.219-12.144c-4.468-2.411-9.648-2.072-13.707,0.363
			c-1.052-6.603-5.036-12.664-11.376-16.087c-8.275-4.466-18.121-3.127-24.899,2.598c-1.893-3.824-4.93-7.124-8.972-9.305
			c-10.373-5.595-23.326-1.73-28.926,8.648c-0.233,0.433-0.426,0.876-0.628,1.318c-1.849-1.767-3.939-3.338-6.298-4.613
			c-14.224-7.672-31.984-2.37-39.66,11.856c-1.395,2.586-2.35,5.291-2.911,8.029c-7.859-0.111-15.512,4.03-19.5,11.427
			c-1.125,2.084-1.863,4.271-2.262,6.484c-4.622-0.982-9.414,0.41-12.794,3.696c-0.897-0.735-1.871-1.402-2.929-1.972
			c-8.662-4.675-19.393-1.668-24.429,6.666c-0.277-0.209-0.552-0.418-0.865-0.586c-3.264-1.762-7.34-0.545-9.101,2.72
			c-0.755,1.402-0.934,2.946-0.666,4.401c-0.865,0.203-1.713,0.477-2.532,0.826c-0.587-1.276-1.554-2.388-2.888-3.106
			c-3.264-1.76-7.341-0.542-9.1,2.723c-0.706,1.31-0.914,2.744-0.723,4.111c-1.124,0.249-2.206,0.61-3.221,1.117
			c-2.835-0.594-5.837,0.675-7.281,3.355c-0.15,0.279-0.251,0.572-0.361,0.862c-0.839-0.184-1.715-0.312-2.64-0.312
			c-3.265,0-6.087,1.247-7.638,3.087c-0.242-0.001-0.477-0.007-0.721-0.007c-9.178,0-16.614,1.426-16.614,3.191
			c0,1.761,7.436,3.189,16.614,3.189c0.244,0,0.48-0.005,0.719-0.008c1.554,1.843,4.376,3.089,7.641,3.089
			c1.844,0,3.558-0.395,4.979-1.071c1.153,2.081,2.984,3.881,5.434,5.067c3.611,1.752,7.715,1.76,11.219,0.426
			c0.974,0.919,2.067,1.736,3.299,2.401c4.86,2.624,10.486,2.396,14.987-0.091c1.145,1.23,2.495,2.302,4.056,3.143
			c7.123,3.848,15.874,1.668,20.44-4.773c1.201,3.544,3.679,6.663,7.231,8.578c7.352,3.976,16.487,1.315,20.61-5.898
			c2.495,3.422,5.742,6.37,9.717,8.513c12.517,6.768,27.759,3.455,36.472-7.124c1.676,2.888,4.125,5.375,7.28,7.075
			c9.09,4.914,20.442,1.517,25.349-7.574c0.073-0.134,0.124-0.271,0.193-0.405c1.224,3.711,3.799,6.984,7.511,8.983
			c7.7,4.165,17.315,1.285,21.474-6.415c0.282-0.522,0.525-1.056,0.743-1.593c2.326,3.539,5.534,6.568,9.522,8.717
			c12.288,6.643,27.476,2.508,34.829-9.119c1.543,2.433,3.703,4.522,6.418,5.985c7.124,3.85,15.726,2.194,20.987-3.477
			c0.614,0.401,1.237,0.794,1.894,1.147c9.954,5.38,21.855,3.504,29.716-3.778c9.928,3.073,21.432,1.534,28.883-3.5
			c5.004,0.856,10.27,0.892,15.145,0.205c0.937,1.093,2.064,2.056,3.408,2.78c5.867,3.173,13.191,0.982,16.359-4.888
			c0.026-0.05,0.039-0.104,0.067-0.156c6.997-0.377,13.474-1.752,17.595-3.941c10.772,0.415,22.11-0.568,27.601-2.57
			C568.284,221.677,563.614,218.604,551.099,217.274z"/>
		<linearGradient id="SVGID_7_" gradientUnits="userSpaceOnUse" x1="68.5207" y1="292.475" x2="68.5207" y2="214.5246">
			<stop  offset="0" style="stop-color:#FFFFFF;stop-opacity:0"/>
			<stop  offset="0.4003" style="stop-color:#FBFBFB;stop-opacity:0.4003"/>
			<stop  offset="0.7991" style="stop-color:#EFEFEF;stop-opacity:0.7991"/>
			<stop  offset="1" style="stop-color:#E6E6E6"/>
		</linearGradient>
		<path opacity="0.5" clip-path="url(#SVGID_3_)" fill="url(#SVGID_7_)" d="M205.893,274.538c-1.771-0.273-3.408-0.358-4.683-0.279
			c-0.198-1.095-1.567-2.02-3.304-2.153c-1.761-0.133-3.268,0.6-3.6,1.678c-0.708-0.753-1.706-1.231-2.823-1.231
			c-1.021,0-1.942,0.402-2.634,1.046c-0.812-1.145-2.101-1.909-3.579-2.038c-0.47-1.389-1.768-2.393-3.315-2.393
			c-0.536,0-1.041,0.13-1.495,0.345c-1.123-1.992-3.255-3.339-5.704-3.339c-1.653,0-3.159,0.617-4.313,1.626
			c-1.56-1.179-3.496-1.887-5.604-1.887c-1.342,0-2.615,0.29-3.769,0.802c-0.412-3.222-3.158-5.713-6.492-5.713
			c-0.477,0-0.943,0.053-1.39,0.15c0.001-0.051,0.007-0.1,0.007-0.152c0-3.619-2.933-6.553-6.552-6.553
			c-0.488,0-0.96,0.058-1.418,0.158c-1.789-6.598-7.8-11.456-14.965-11.456c-3.375,0-6.489,1.088-9.035,2.916
			c-0.611-5.712-5.441-10.16-11.316-10.16c-3.315,0-6.29,1.426-8.371,3.687c-0.928-10.379-9.634-18.516-20.255-18.516
			c-4.885,0-9.365,1.724-12.872,4.592c-4.814-6.744-12.7-11.145-21.62-11.145c-12.823,0-23.521,9.085-26.01,21.17
			c-1.819-0.524-3.735-0.819-5.722-0.819c-10.608,0-19.335,7.982-20.539,18.264c-1.239-0.429-2.564-0.674-3.95-0.674
			c-4.492,0-8.404,2.462-10.483,6.103c-1.271-0.375-2.611-0.585-4.003-0.585c-4.939,0-9.281,2.536-11.808,6.373
			c-0.962-0.648-2.121-1.026-3.367-1.026c-2.747,0-5.061,1.836-5.793,4.346c-0.55-0.242-1.155-0.38-1.796-0.38
			c-2.03,0-3.722,1.356-4.276,3.207c-1.422,0.283-2.615,1.167-3.341,2.368c-0.05-0.002-0.095-0.016-0.146-0.016
			c-1.116,0-2.114,0.477-2.821,1.232c-0.332-1.079-1.839-1.813-3.601-1.679c-1.737,0.133-3.106,1.058-3.304,2.152
			c-1.275-0.077-2.913,0.007-4.683,0.28c-3.874,0.596-6.89,1.857-6.742,2.818c0.133,0.862,2.764,1.184,6.097,0.812
			c0.711,0.603,2.197,1.054,3.952,1.115c1.561,0.054,2.944-0.216,3.757-0.669c0.568,0.692,1.422,1.143,2.388,1.143
			c0.786,0,1.495-0.302,2.042-0.783c0.712,0.817,1.747,1.343,2.915,1.343c0.792,0,1.525-0.24,2.138-0.645
			c0.706,0.37,1.495,0.599,2.349,0.599c1.465,0,2.778-0.629,3.706-1.622c1.105,1.406,2.817,2.313,4.743,2.313
			c2.094,0,3.937-1.066,5.02-2.684c2.347,4.56,7.089,7.685,12.571,7.685c4.424,0,8.37-2.034,10.963-5.213
			c1.875,4.48,6.295,7.627,11.456,7.627c5.568,0,10.278-3.663,11.853-8.711c1.775,4.686,6.293,8.023,11.602,8.023
			c4.732,0,8.844-2.65,10.938-6.543c3.627,5.983,10.181,9.994,17.689,9.994c5.779,0,10.997-2.372,14.75-6.191
			c2.315,3.712,6.421,6.189,11.117,6.189c3.913,0,7.415-1.723,9.816-4.44c3.933,3.408,9.061,5.475,14.674,5.475
			c6.769,0,12.832-3.004,16.942-7.746c2.54,2.038,5.76,3.263,9.27,3.263c4.918,0,9.263-2.404,11.962-6.088
			c2.06,2.056,4.901,3.328,8.043,3.328c4.061,0,7.616-2.132,9.631-5.331c1.612,2.772,4.607,4.641,8.047,4.641
			c2.702,0,5.127-1.155,6.827-2.992c1.094,0.846,2.461,1.354,3.953,1.354c2.379,0,4.453-1.289,5.576-3.202
			c0.901,1.007,2.195,1.65,3.65,1.65c1.658,0,3.115-0.825,4.005-2.08c0.692,0.643,1.613,1.046,2.634,1.046
			c1.169,0,2.204-0.527,2.916-1.343c0.547,0.482,1.256,0.782,2.042,0.782c0.967,0,1.818-0.449,2.388-1.142
			c0.814,0.453,2.195,0.721,3.759,0.667c1.751-0.06,3.239-0.511,3.951-1.115c3.333,0.372,5.964,0.05,6.097-0.811
			C212.782,276.396,209.766,275.135,205.893,274.538z"/>
		<linearGradient id="SVGID_8_" gradientUnits="userSpaceOnUse" x1="386.8643" y1="171.6549" x2="386.8643" y2="95.5391">
			<stop  offset="0" style="stop-color:#FFFFFF;stop-opacity:0"/>
			<stop  offset="0.4003" style="stop-color:#FBFBFB;stop-opacity:0.4003"/>
			<stop  offset="0.7991" style="stop-color:#EFEFEF;stop-opacity:0.7991"/>
			<stop  offset="1" style="stop-color:#E6E6E6"/>
		</linearGradient>
		<path opacity="0.5" clip-path="url(#SVGID_3_)" fill="url(#SVGID_8_)" d="M521.003,154.14c-1.729-0.266-3.328-0.349-4.573-0.272
			c-0.194-1.07-1.53-1.973-3.226-2.102c-1.719-0.13-3.192,0.586-3.515,1.639c-0.691-0.736-1.666-1.202-2.757-1.202
			c-0.997,0-1.896,0.393-2.572,1.021c-0.793-1.118-2.051-1.864-3.494-1.99c-0.459-1.356-1.727-2.337-3.237-2.337
			c-0.524,0-1.016,0.127-1.46,0.337c-1.097-1.945-3.178-3.26-5.57-3.26c-1.615,0-3.085,0.602-4.212,1.587
			c-1.524-1.151-3.414-1.842-5.472-1.842c-1.311,0-2.554,0.283-3.68,0.783c-0.403-3.146-3.084-5.578-6.339-5.578
			c-0.466,0-0.92,0.051-1.357,0.146c0.001-0.049,0.007-0.098,0.007-0.148c0-3.534-2.864-6.398-6.397-6.398
			c-0.476,0-0.937,0.057-1.384,0.154c-1.747-6.443-7.616-11.186-14.613-11.186c-3.296,0-6.336,1.063-8.822,2.848
			c-0.596-5.577-5.313-9.921-11.049-9.921c-3.237,0-6.142,1.393-8.174,3.6c-0.906-10.135-9.407-18.08-19.778-18.08
			c-4.77,0-9.144,1.683-12.569,4.484c-4.701-6.585-12.401-10.883-21.111-10.883c-12.521,0-22.967,8.871-25.398,20.671
			c-1.776-0.512-3.647-0.8-5.587-0.8c-10.358,0-18.88,7.794-20.056,17.834c-1.21-0.419-2.503-0.658-3.858-0.658
			c-4.386,0-8.207,2.404-10.236,5.96c-1.241-0.366-2.55-0.571-3.909-0.571c-4.822,0-9.062,2.476-11.53,6.223
			c-0.939-0.633-2.071-1.002-3.288-1.002c-2.682,0-4.942,1.793-5.657,4.244c-0.537-0.236-1.128-0.371-1.754-0.371
			c-1.982,0-3.635,1.324-4.175,3.131c-1.389,0.277-2.554,1.139-3.262,2.313c-0.048-0.002-0.093-0.015-0.142-0.015
			c-1.09,0-2.065,0.466-2.755,1.203c-0.324-1.054-1.796-1.77-3.516-1.64c-1.696,0.13-3.033,1.033-3.226,2.102
			c-1.245-0.076-2.844,0.007-4.573,0.273c-3.783,0.582-6.727,1.813-6.583,2.752c0.13,0.841,2.699,1.156,5.953,0.793
			c0.694,0.588,2.145,1.029,3.859,1.089c1.525,0.052,2.875-0.211,3.669-0.653c0.555,0.676,1.388,1.116,2.332,1.116
			c0.768,0,1.46-0.295,1.994-0.765c0.695,0.798,1.706,1.312,2.846,1.312c0.773,0,1.489-0.234,2.088-0.63
			c0.689,0.361,1.46,0.585,2.293,0.585c1.431,0,2.712-0.615,3.618-1.584c1.079,1.373,2.751,2.258,4.632,2.258
			c2.044,0,3.845-1.041,4.902-2.62c2.292,4.453,6.922,7.504,12.275,7.504c4.32,0,8.173-1.986,10.705-5.091
			c1.83,4.374,6.147,7.448,11.186,7.448c5.437,0,10.036-3.577,11.574-8.506c1.734,4.576,6.145,7.834,11.329,7.834
			c4.62,0,8.635-2.587,10.681-6.389c3.542,5.842,9.941,9.758,17.273,9.758c5.643,0,10.738-2.317,14.403-6.045
			c2.26,3.624,6.27,6.043,10.855,6.043c3.821,0,7.241-1.682,9.585-4.336c3.84,3.328,8.847,5.346,14.328,5.346
			c6.609,0,12.531-2.933,16.544-7.564c2.48,1.99,5.624,3.187,9.052,3.187c4.802,0,9.045-2.347,11.681-5.944
			c2.011,2.008,4.786,3.25,7.854,3.25c3.965,0,7.437-2.082,9.404-5.206c1.574,2.707,4.498,4.532,7.857,4.532
			c2.639,0,5.006-1.128,6.666-2.921c1.069,0.826,2.404,1.322,3.86,1.322c2.323,0,4.348-1.258,5.445-3.127
			c0.88,0.983,2.143,1.611,3.564,1.611c1.619,0,3.041-0.805,3.911-2.031c0.676,0.628,1.575,1.021,2.572,1.021
			c1.141,0,2.152-0.515,2.848-1.312c0.534,0.47,1.226,0.764,1.994,0.764c0.944,0,1.775-0.439,2.332-1.115
			c0.795,0.442,2.143,0.704,3.671,0.652c1.71-0.059,3.162-0.499,3.857-1.089c3.254,0.363,5.823,0.048,5.953-0.792
			C527.731,155.954,524.785,154.723,521.003,154.14z"/>
		<linearGradient id="SVGID_9_" gradientUnits="userSpaceOnUse" x1="224.4904" y1="277.7197" x2="224.4904" y2="186.7619">
			<stop  offset="0" style="stop-color:#FFFFFF;stop-opacity:0"/>
			<stop  offset="0.4003" style="stop-color:#FBFBFB;stop-opacity:0.4003"/>
			<stop  offset="0.7991" style="stop-color:#EFEFEF;stop-opacity:0.7991"/>
			<stop  offset="1" style="stop-color:#E6E6E6"/>
		</linearGradient>
		<path opacity="0.9" clip-path="url(#SVGID_3_)" fill="url(#SVGID_9_)" d="M388.964,253.72c-0.37-2.675-2.66-4.738-5.437-4.738
			c-1.371,0-2.625,0.508-3.586,1.339c-0.999-1.388-2.622-2.295-4.463-2.295c-0.973,0-1.887,0.254-2.678,0.699
			c-0.532-2.48-2.733-4.342-5.371-4.342c-1.843,0-3.469,0.911-4.466,2.303c-1.342-1.345-3.195-2.177-5.246-2.177
			c-1,0-1.957,0.202-2.828,0.563c-0.205-2.847-2.574-5.096-5.475-5.096c-2.177,0-4.051,1.27-4.942,3.105
			c-1.271-1.023-2.883-1.639-4.641-1.639c-1.294,0-2.51,0.334-3.57,0.917c-1.864-1.373-4.159-2.195-6.653-2.195
			c-1.557,0-3.043,0.317-4.391,0.891c-1.162-4.972-5.613-8.682-10.939-8.682c-1.898,0-3.681,0.476-5.246,1.303
			c-1.416-2.17-3.856-3.605-6.638-3.605c-3.434,0-6.349,2.188-7.449,5.244c-0.659-5.186-5.079-9.201-10.445-9.201
			c-1.766,0-3.427,0.44-4.889,1.208c-2.211-4.226-6.459-7.214-11.441-7.663c0.107-0.472,0.168-0.962,0.168-1.468
			c0-3.666-2.972-6.642-6.64-6.642c-0.831,0-1.621,0.159-2.354,0.438c-1.503-5.764-6.742-10.019-12.978-10.019
			c-1.863,0-3.636,0.381-5.249,1.068c-0.179-9.015-7.54-16.275-16.598-16.275c-8.747,0-15.908,6.765-16.554,15.343
			c-2.394-2.225-5.6-3.588-9.126-3.588c-7.105,0-12.917,5.53-13.379,12.518c-1.015-0.393-2.112-0.617-3.265-0.617
			c-4.287,0-7.87,2.978-8.814,6.977c-2.714-1.758-5.946-2.782-9.42-2.782c-7.605,0-14.062,4.886-16.418,11.688
			c-0.315-0.038-0.632-0.065-0.957-0.065c-2.782,0-5.224,1.438-6.637,3.608c-1.566-0.83-3.35-1.305-5.246-1.305
			c-1.454,0-2.839,0.287-4.114,0.789c-1.765-1.928-4.295-3.145-7.115-3.145c-4.287,0-7.917,2.798-9.177,6.664
			c-3.642-0.295-7.853,0.204-12.005,1.514c-4.789,1.51-7.994,4.031-8.199,6.879c-0.872-0.36-1.827-0.562-2.829-0.562
			c-2.049,0-3.905,0.832-5.245,2.176c-0.996-1.39-2.623-2.301-4.466-2.301c-2.638,0-4.84,1.861-5.371,4.34
			c-0.792-0.443-1.704-0.699-2.678-0.699c-1.84,0-3.464,0.907-4.463,2.298c-0.962-0.832-2.214-1.339-3.586-1.339
			c-2.777,0-5.068,2.063-5.437,4.737c-11.104,0.117-19.858,1.439-19.858,3.056c0,1.696,9.609,3.067,21.463,3.067
			c0.242,0,0.48-0.001,0.719-0.002c0.568,1.778,2.232,3.066,4.199,3.066c1.312,0,2.486-0.576,3.294-1.484
			c2.884,1.124,6.792,1.947,11.247,2.305c0.917,1.644,2.672,2.756,4.688,2.756c0.821,0,1.595-0.188,2.29-0.517
			c0.937,1.571,2.647,2.625,4.609,2.625c2.283,0,4.227-1.426,5.003-3.436c2.912,0.687,6.202,1.074,9.689,1.074
			c2.722,0,5.322-0.238,7.718-0.666c0.781,1.997,2.721,3.411,4.994,3.411c1.364,0,2.605-0.512,3.551-1.348
			c1.494,0.733,3.169,1.156,4.946,1.156c3.465,0,6.561-1.568,8.625-4.033c1.353,4.692,5.669,8.125,10.795,8.125
			c4.539,0,8.44-2.697,10.216-6.568c2.84,3.828,7.393,6.309,12.526,6.309c5.518,0,10.362-2.87,13.132-7.195
			c4.567,6.945,12.428,11.534,21.363,11.534c5.264,0,10.156-1.593,14.221-4.321c2.061,2.482,5.169,4.064,8.648,4.064
			c3.189,0,6.062-1.334,8.106-3.466c2.036,3.306,5.676,5.516,9.843,5.516c3.689,0,6.967-1.732,9.084-4.421
			c2.168,4.286,6.61,7.224,11.744,7.224c5.476,0,10.168-3.343,12.149-8.099c2.404,2.622,5.859,4.266,9.698,4.266
			c2.689,0,5.191-0.807,7.274-2.192c1.506,0.749,3.198,1.181,4.994,1.181c5.127,0,9.443-3.433,10.795-8.124
			c2.064,2.464,5.16,4.033,8.625,4.033c1.777,0,3.451-0.423,4.945-1.157c0.948,0.837,2.188,1.349,3.553,1.349
			c2.272,0,4.211-1.415,4.993-3.411c2.395,0.428,4.996,0.665,7.718,0.665c3.487,0,6.777-0.388,9.689-1.073
			c6.258,6.937,15.322,2.603,16.59-1.428c4.455-0.359,8.363-1.182,11.247-2.306c0.807,0.91,1.982,1.485,3.293,1.485
			c1.968,0,3.632-1.288,4.199-3.066c0.24,0,0.478,0.003,0.72,0.003c11.856,0,21.464-1.371,21.464-3.066
			C408.821,255.159,400.067,253.838,388.964,253.72z"/>
		<linearGradient id="SVGID_10_" gradientUnits="userSpaceOnUse" x1="420.248" y1="201.6415" x2="420.248" y2="128.5905">
			<stop  offset="0" style="stop-color:#FFFFFF;stop-opacity:0"/>
			<stop  offset="0.4003" style="stop-color:#FBFBFB;stop-opacity:0.4003"/>
			<stop  offset="0.7991" style="stop-color:#EFEFEF;stop-opacity:0.7991"/>
			<stop  offset="1" style="stop-color:#E6E6E6"/>
		</linearGradient>
		<path clip-path="url(#SVGID_3_)" fill="url(#SVGID_10_)" d="M565.955,179.596c-2.508-0.267-5.193-0.4-7.86-0.421
			c-0.112-1.409-0.907-2.737-2.243-3.461c-2.094-1.128-4.71-0.348-5.84,1.747c-0.501-7.236-20.581-11.414-24.027-4.637
			c-0.35-2.604-1.876-5.015-4.363-6.358c-4.125-2.223-9.275-0.688-11.501,3.439c-0.06,0.111-0.087,0.228-0.142,0.34
			c-1.257-0.292-2.533-0.489-3.818-0.587c0.411-2.351-0.666-4.803-2.885-6.003c-2.649-1.426-5.909-0.528-7.499,1.974
			c-0.878-0.719-1.832-1.369-2.868-1.929c-2.567-1.385-5.321-2.068-8.053-2.148c-1.479-3.968-4.332-7.445-8.35-9.614
			c-7.045-3.801-15.488-2.443-21.014,2.766c-0.019-3.45-1.826-6.785-5.076-8.539c-3.142-1.695-6.784-1.457-9.639,0.255
			c-0.74-4.643-3.541-8.905-8-11.312c-5.819-3.141-12.742-2.199-17.508,1.827c-1.331-2.689-3.467-5.009-6.309-6.543
			c-7.294-3.934-16.402-1.217-20.34,6.081c-0.164,0.304-0.299,0.616-0.441,0.927c-1.301-1.242-2.77-2.347-4.429-3.244
			c-10.002-5.395-22.49-1.667-27.888,8.337c-0.981,1.818-1.652,3.72-2.047,5.645c-5.526-0.078-10.908,2.834-13.712,8.035
			c-0.791,1.465-1.31,3.003-1.59,4.559c-3.25-0.69-6.62,0.288-8.996,2.599c-0.631-0.517-1.316-0.986-2.059-1.386
			c-6.091-3.288-13.636-1.173-17.178,4.687c-0.195-0.147-0.388-0.294-0.608-0.412c-2.295-1.239-5.161-0.383-6.4,1.913
			c-0.531,0.986-0.657,2.072-0.468,3.095c-0.608,0.143-1.204,0.336-1.78,0.581c-0.413-0.897-1.093-1.679-2.031-2.184
			c-2.295-1.238-5.162-0.381-6.399,1.915c-0.497,0.921-0.643,1.93-0.508,2.891c-0.79,0.176-1.551,0.429-2.264,0.786
			c-1.994-0.418-4.105,0.475-5.12,2.359c-0.106,0.196-0.177,0.402-0.254,0.606c-0.59-0.13-1.206-0.219-1.856-0.219
			c-2.296,0-4.28,0.877-5.371,2.171c-0.17-0.001-0.336-0.005-0.507-0.005c-6.454,0-11.683,1.003-11.683,2.244
			c0,1.238,5.229,2.242,11.683,2.242c0.172,0,0.338-0.004,0.505-0.006c1.093,1.296,3.077,2.172,5.373,2.172
			c1.297,0,2.502-0.277,3.501-0.753c0.811,1.464,2.099,2.729,3.821,3.563c2.539,1.232,5.425,1.238,7.889,0.299
			c0.685,0.646,1.453,1.22,2.32,1.689c3.417,1.845,7.373,1.685,10.538-0.064c0.805,0.865,1.754,1.619,2.852,2.21
			c5.009,2.706,11.162,1.173,14.372-3.356c0.845,2.492,2.587,4.685,5.085,6.031c5.17,2.796,11.593,0.925,14.492-4.147
			c1.754,2.406,4.038,4.479,6.832,5.986c8.801,4.759,19.519,2.429,25.646-5.01c1.178,2.031,2.9,3.78,5.119,4.975
			c6.392,3.455,14.374,1.067,17.825-5.326c0.051-0.094,0.087-0.191,0.135-0.285c0.861,2.61,2.672,4.911,5.281,6.317
			c5.415,2.929,12.176,0.904,15.1-4.511c0.198-0.367,0.369-0.743,0.522-1.12c1.635,2.488,3.891,4.618,6.695,6.13
			c8.64,4.671,19.32,1.764,24.491-6.412c1.085,1.711,2.604,3.18,4.513,4.209c5.009,2.707,11.058,1.543,14.758-2.445
			c0.432,0.282,0.87,0.559,1.332,0.806c6.999,3.783,15.368,2.464,20.895-2.656c6.981,2.161,15.07,1.078,20.31-2.461
			c3.518,0.602,7.221,0.627,10.649,0.144c0.659,0.768,1.451,1.445,2.396,1.955c4.126,2.231,9.275,0.69,11.503-3.437
			c0.018-0.035,0.028-0.074,0.047-0.11c4.92-0.265,9.475-1.232,12.372-2.771c7.574,0.292,15.547-0.4,19.408-1.807
			C578.039,182.692,574.755,180.532,565.955,179.596z"/>
		<linearGradient id="SVGID_11_" gradientUnits="userSpaceOnUse" x1="241.0161" y1="311.6025" x2="241.0161" y2="226.2429">
			<stop  offset="0" style="stop-color:#FFFFFF;stop-opacity:0"/>
			<stop  offset="0.4003" style="stop-color:#FBFBFB;stop-opacity:0.4003"/>
			<stop  offset="0.7991" style="stop-color:#EFEFEF;stop-opacity:0.7991"/>
			<stop  offset="1" style="stop-color:#E6E6E6"/>
		</linearGradient>
		<path clip-path="url(#SVGID_3_)" fill="url(#SVGID_11_)" d="M391.445,291.96c-1.94-0.299-3.732-0.392-5.129-0.306
			c-0.217-1.199-1.715-2.212-3.618-2.357c-1.928-0.146-3.579,0.657-3.942,1.838c-0.775-0.825-1.868-1.348-3.092-1.348
			c-1.118,0-2.126,0.44-2.884,1.145c-0.889-1.254-2.301-2.09-3.919-2.231c-0.515-1.521-1.936-2.621-3.63-2.621
			c-0.587,0-1.139,0.143-1.637,0.378c-1.23-2.182-3.565-3.656-6.246-3.656c-1.811,0-3.459,0.676-4.723,1.78
			c-1.709-1.291-3.828-2.066-6.137-2.066c-1.47,0-2.864,0.318-4.127,0.878c-0.451-3.528-3.458-6.256-7.109-6.256
			c-0.523,0-1.032,0.058-1.522,0.164c0.001-0.055,0.008-0.11,0.008-0.166c0-3.963-3.211-7.175-7.174-7.175
			c-0.534,0-1.051,0.063-1.552,0.173c-1.959-7.225-8.541-12.545-16.388-12.545c-3.696,0-7.105,1.192-9.894,3.193
			c-0.669-6.254-5.958-11.126-12.391-11.126c-3.63,0-6.888,1.562-9.167,4.038c-1.016-11.366-10.55-20.276-22.18-20.276
			c-5.349,0-10.255,1.887-14.095,5.029c-5.272-7.385-13.907-12.204-23.675-12.204c-14.042,0-25.756,9.948-28.482,23.182
			c-1.992-0.574-4.09-0.897-6.266-0.897c-11.616,0-21.173,8.74-22.492,20c-1.357-0.47-2.807-0.738-4.326-0.738
			c-4.919,0-9.203,2.695-11.479,6.683c-1.392-0.411-2.86-0.641-4.384-0.641c-5.408,0-10.163,2.777-12.931,6.979
			c-1.053-0.71-2.322-1.124-3.687-1.124c-3.008,0-5.542,2.011-6.344,4.759c-0.602-0.265-1.265-0.416-1.967-0.416
			c-2.222,0-4.076,1.485-4.683,3.511c-1.557,0.31-2.864,1.277-3.658,2.594c-0.054-0.002-0.104-0.017-0.16-0.017
			c-1.222,0-2.315,0.523-3.089,1.349c-0.363-1.182-2.014-1.985-3.944-1.839c-1.902,0.146-3.402,1.159-3.618,2.357
			c-1.396-0.085-3.19,0.008-5.128,0.307c-4.243,0.653-7.545,2.034-7.383,3.086c0.146,0.944,3.027,1.297,6.676,0.889
			c0.779,0.66,2.406,1.154,4.327,1.221c1.71,0.059,3.224-0.236,4.114-0.732c0.622,0.758,1.557,1.252,2.615,1.252
			c0.861,0,1.637-0.33,2.236-0.858c0.78,0.895,1.913,1.471,3.192,1.471c0.867,0,1.67-0.263,2.341-0.706
			c0.773,0.405,1.637,0.656,2.572,0.656c1.605,0,3.042-0.689,4.058-1.777c1.21,1.54,3.085,2.533,5.194,2.533
			c2.293,0,4.311-1.168,5.497-2.939c2.57,4.994,7.763,8.416,13.766,8.416c4.844,0,9.166-2.227,12.005-5.709
			c2.053,4.905,6.894,8.352,12.545,8.352c6.097,0,11.255-4.011,12.979-9.539c1.944,5.132,6.891,8.786,12.704,8.786
			c5.182,0,9.684-2.901,11.978-7.165c3.972,6.552,11.148,10.944,19.371,10.944c6.328,0,12.042-2.598,16.152-6.779
			c2.535,4.065,7.032,6.777,12.174,6.777c4.285,0,8.12-1.886,10.749-4.863c4.307,3.732,9.922,5.995,16.069,5.995
			c7.412,0,14.052-3.289,18.553-8.482c2.781,2.232,6.307,3.574,10.151,3.574c5.385,0,10.144-2.632,13.099-6.666
			c2.255,2.252,5.367,3.645,8.807,3.645c4.447,0,8.34-2.335,10.547-5.838c1.765,3.036,5.045,5.082,8.812,5.082
			c2.959,0,5.614-1.265,7.475-3.276c1.198,0.927,2.695,1.482,4.328,1.482c2.605,0,4.876-1.411,6.106-3.507
			c0.987,1.102,2.404,1.807,3.997,1.807c1.815,0,3.411-0.903,4.386-2.278c0.758,0.704,1.766,1.145,2.884,1.145
			c1.28,0,2.414-0.577,3.193-1.471c0.599,0.527,1.375,0.857,2.236,0.857c1.059,0,1.991-0.492,2.615-1.25
			c0.892,0.496,2.404,0.79,4.117,0.731c1.918-0.066,3.546-0.56,4.326-1.221c3.65,0.407,6.531,0.054,6.677-0.888
			C398.99,293.995,395.687,292.614,391.445,291.96z"/>
		<linearGradient id="SVGID_12_" gradientUnits="userSpaceOnUse" x1="406.7769" y1="313.5749" x2="406.7769" y2="193.3779">
			<stop  offset="0" style="stop-color:#FFFFFF;stop-opacity:0"/>
			<stop  offset="0.4003" style="stop-color:#FBFBFB;stop-opacity:0.4003"/>
			<stop  offset="0.7991" style="stop-color:#EFEFEF;stop-opacity:0.7991"/>
			<stop  offset="1" style="stop-color:#E6E6E6"/>
		</linearGradient>
		<path clip-path="url(#SVGID_3_)" fill="url(#SVGID_12_)" d="M646.521,277.302c-4.126-0.439-8.544-0.657-12.933-0.693
			c-0.183-2.319-1.492-4.504-3.691-5.695c-3.445-1.856-7.75-0.573-9.609,2.874c-0.825-11.906-33.864-18.78-39.534-7.629
			c-0.576-4.284-3.086-8.252-7.179-10.461c-6.787-3.659-15.261-1.133-18.923,5.659c-0.099,0.182-0.143,0.375-0.234,0.56
			c-2.068-0.48-4.168-0.805-6.282-0.967c0.676-3.869-1.096-7.904-4.747-9.877c-4.358-2.347-9.722-0.869-12.339,3.247
			c-1.445-1.183-3.014-2.253-4.719-3.174c-4.223-2.279-8.756-3.403-13.25-3.535c-2.433-6.529-7.127-12.249-13.74-15.818
			c-11.592-6.255-25.484-4.019-34.576,4.551c-0.031-5.676-3.004-11.164-8.352-14.05c-5.169-2.789-11.162-2.397-15.859,0.421
			c-1.217-7.64-5.827-14.653-13.162-18.612c-9.574-5.168-20.965-3.618-28.808,3.006c-2.19-4.424-5.704-8.243-10.381-10.765
			c-12.001-6.473-26.988-2.002-33.467,10.006c-0.27,0.501-0.493,1.014-0.727,1.525c-2.14-2.044-4.557-3.862-7.287-5.337
			c-16.457-8.876-37.005-2.742-45.886,13.718c-1.614,2.992-2.719,6.122-3.368,9.289c-9.093-0.129-17.947,4.662-22.561,13.22
			c-1.302,2.411-2.156,4.942-2.617,7.502c-5.348-1.136-10.892,0.474-14.802,4.277c-1.038-0.85-2.165-1.622-3.389-2.281
			c-10.021-5.409-22.437-1.93-28.264,7.712c-0.32-0.242-0.638-0.483-1.001-0.678c-3.776-2.038-8.492-0.631-10.53,3.147
			c-0.874,1.622-1.081,3.409-0.77,5.092c-1.001,0.235-1.981,0.552-2.929,0.955c-0.679-1.476-1.798-2.763-3.341-3.594
			c-3.776-2.036-8.493-0.628-10.528,3.15c-0.817,1.515-1.057,3.175-0.836,4.757c-1.301,0.289-2.553,0.706-3.726,1.293
			c-3.28-0.687-6.754,0.781-8.424,3.881c-0.174,0.323-0.29,0.662-0.417,0.998c-0.971-0.213-1.985-0.361-3.055-0.361
			c-3.778,0-7.042,1.443-8.837,3.572c-0.279-0.002-0.552-0.008-0.835-0.008c-10.619,0-19.223,1.651-19.223,3.691
			c0,2.038,8.603,3.69,19.223,3.69c0.282,0,0.555-0.006,0.831-0.01c1.798,2.132,5.063,3.574,8.84,3.574
			c2.134,0,4.117-0.456,5.761-1.239c1.333,2.408,3.453,4.49,6.288,5.863c4.178,2.027,8.927,2.036,12.98,0.493
			c1.126,1.064,2.391,2.008,3.817,2.778c5.623,3.036,12.132,2.772,17.34-0.105c1.324,1.423,2.887,2.664,4.692,3.637
			c8.241,4.452,18.366,1.93,23.648-5.522c1.39,4.101,4.256,7.709,8.367,9.924c8.506,4.6,19.075,1.522,23.846-6.824
			c2.887,3.96,6.644,7.37,11.242,9.849c14.482,7.83,32.117,3.997,42.198-8.243c1.939,3.342,4.772,6.219,8.423,8.186
			c10.517,5.685,23.651,1.756,29.329-8.763c0.085-0.155,0.143-0.314,0.223-0.469c1.417,4.294,4.396,8.081,8.69,10.393
			c8.909,4.819,20.034,1.487,24.845-7.422c0.326-0.604,0.607-1.222,0.86-1.843c2.69,4.094,6.402,7.599,11.016,10.086
			c14.216,7.686,31.789,2.902,40.296-10.55c1.785,2.815,4.284,5.232,7.425,6.925c8.243,4.454,18.195,2.538,24.282-4.022
			c0.711,0.464,1.431,0.919,2.191,1.327c11.517,6.225,25.286,4.054,34.381-4.371c11.487,3.555,24.796,1.774,33.417-4.049
			c5.789,0.99,11.882,1.032,17.522,0.237c1.084,1.264,2.388,2.378,3.942,3.216c6.788,3.671,15.261,1.136,18.928-5.655
			c0.03-0.058,0.045-0.121,0.077-0.18c8.095-0.436,15.589-2.027,20.357-4.559c12.463,0.48,25.581-0.657,31.933-2.973
			C666.404,282.396,661.001,278.841,646.521,277.302z"/>
	</g>
</g>
</svg>
