<?xml version="1.0" encoding="utf-8"?>
<!-- Generator: Adobe Illustrator 17.0.0, SVG Export Plug-In . SVG Version: 6.00 Build 0)  -->
<!DOCTYPE svg PUBLIC "-//W3C//DTD SVG 1.1//EN" "http://www.w3.org/Graphics/SVG/1.1/DTD/svg11.dtd">
<svg version="1.1" id="Calque_1" xmlns="http://www.w3.org/2000/svg" xmlns:xlink="http://www.w3.org/1999/xlink" x="0px" y="0px"
	 width="155.906px" height="155.906px" viewBox="0 0 155.906 155.906" enable-background="new 0 0 155.906 155.906"
	 xml:space="preserve">
<g>
	<circle fill="#F8AF40" cx="56.61" cy="70.926" r="22.966"/>
	<g>
		<path fill="#F8AF40" d="M56.61,41.734c-1.599,0-2.895-1.296-2.895-2.895V26.245c0-1.599,1.296-2.895,2.895-2.895
			c1.599,0,2.895,1.296,2.895,2.895V38.84C59.505,40.439,58.209,41.734,56.61,41.734z"/>
	</g>
	<g>
		<path fill="#F8AF40" d="M24.204,74.14H11.609c-1.599,0-2.895-1.296-2.895-2.895c0-1.599,1.296-2.895,2.895-2.895h12.595
			c1.599,0,2.895,1.296,2.895,2.895C27.099,72.844,25.803,74.14,24.204,74.14z"/>
	</g>
	<g>
		<path fill="#F8AF40" d="M33.696,51.225c-0.741,0-1.481-0.283-2.047-0.848l-8.906-8.906c-1.131-1.13-1.131-2.963,0-4.093
			c1.131-1.131,2.962-1.131,4.093,0l8.906,8.906c1.131,1.13,1.131,2.963,0,4.093C35.177,50.943,34.437,51.225,33.696,51.225z"/>
	</g>
	<g>
		<path fill="#F8AF40" d="M24.79,105.96c-0.741,0-1.481-0.283-2.047-0.848c-1.131-1.13-1.131-2.963,0-4.093l8.906-8.906
			c1.131-1.131,2.962-1.131,4.093,0c1.131,1.13,1.131,2.963,0,4.093l-8.906,8.906C26.271,105.677,25.531,105.96,24.79,105.96z"/>
	</g>
	<g>
		<path fill="#F8AF40" d="M79.525,51.225c-0.741,0-1.481-0.283-2.047-0.848c-1.131-1.13-1.131-2.962,0-4.093l8.905-8.906
			c1.129-1.131,2.962-1.131,4.093,0c1.131,1.13,1.131,2.962,0,4.093l-8.905,8.906C81.007,50.943,80.265,51.225,79.525,51.225z"/>
	</g>
	<path fill="#38AFCE" d="M120.549,79.856c-0.01,0-0.019,0.001-0.029,0.001c0.004-0.194,0.029-0.383,0.029-0.579
		c0-15.386-12.473-27.859-27.858-27.859c-15.386,0-27.859,12.473-27.859,27.859c0,0.018,0.003,0.036,0.003,0.054
		c-12.069,0.56-21.689,10.494-21.689,22.701c0,12.567,10.188,22.755,22.755,22.755h54.648c12.408,0,22.467-10.059,22.467-22.467
		C143.016,89.915,132.957,79.856,120.549,79.856z"/>
</g>
<g>
</g>
<g>
</g>
<g>
</g>
<g>
</g>
<g>
</g>
<g>
</g>
</svg>
