<?xml version="1.0" encoding="utf-8"?>
<!-- Generator: Adobe Illustrator 17.0.0, SVG Export Plug-In . SVG Version: 6.00 Build 0)  -->
<!DOCTYPE svg PUBLIC "-//W3C//DTD SVG 1.1//EN" "http://www.w3.org/Graphics/SVG/1.1/DTD/svg11.dtd">
<svg version="1.1" id="Calque_1" xmlns="http://www.w3.org/2000/svg" xmlns:xlink="http://www.w3.org/1999/xlink" x="0px" y="0px"
	 width="155.906px" height="155.906px" viewBox="0 0 155.906 155.906" enable-background="new 0 0 155.906 155.906"
	 xml:space="preserve">
<g>
	<path fill="#38AFCE" d="M82.098,58.537c-0.009,0-0.018,0.001-0.028,0.001c0.004-0.185,0.028-0.365,0.028-0.551
		c0-14.637-11.865-26.502-26.502-26.502c-14.636,0-26.502,11.865-26.502,26.502c0,0.017,0.003,0.034,0.003,0.051
		C17.616,58.572,8.464,68.021,8.464,79.634c0,11.955,9.692,21.647,21.647,21.647h51.987c11.804,0,21.372-9.569,21.372-21.372
		C103.47,68.105,93.902,58.537,82.098,58.537z"/>
	<g>
		<path fill="#ADDAE4" d="M137.905,79.027H95.108c-2.028,0-3.671-1.644-3.671-3.671c0-2.028,1.644-3.671,3.671-3.671h42.797
			c3.06,0,5.55-2.49,5.55-5.55c0-3.06-2.49-5.55-5.55-5.55h-5.437c-2.028,0-3.671-1.644-3.671-3.671
			c0-2.028,1.644-3.671,3.671-3.671h5.437c7.11,0,12.893,5.783,12.893,12.893C150.798,73.244,145.015,79.027,137.905,79.027z"/>
	</g>
	<g>
		<path fill="#ADDAE4" d="M123.956,123.007c-9.066,0-16.441-7.375-16.441-16.439c0-6.197,5.041-11.238,11.238-11.238
			c6.197,0,11.238,5.041,11.238,11.238v1.891c0,2.028-1.644,3.671-3.671,3.671c-2.027,0-3.671-1.644-3.671-3.671v-1.891
			c0-2.148-1.748-3.896-3.896-3.896c-2.148,0-3.895,1.748-3.895,3.896c0,5.016,4.082,9.096,9.098,9.096
			c5.016,0,9.096-4.08,9.096-9.096v-3.757c0-6.857-5.577-12.434-12.434-12.434H62.951c-2.028,0-3.671-1.644-3.671-3.671
			s1.644-3.671,3.671-3.671h57.667c10.905,0,19.777,8.872,19.777,19.777v3.757C140.395,115.632,133.02,123.007,123.956,123.007z"/>
	</g>
</g>
<g>
</g>
<g>
</g>
<g>
</g>
<g>
</g>
<g>
</g>
<g>
</g>
</svg>
