<?xml version="1.0" encoding="utf-8"?>
<!-- Generator: Adobe Illustrator 17.0.0, SVG Export Plug-In . SVG Version: 6.00 Build 0)  -->
<!DOCTYPE svg PUBLIC "-//W3C//DTD SVG 1.1//EN" "http://www.w3.org/Graphics/SVG/1.1/DTD/svg11.dtd">
<svg version="1.1" id="Calque_1" xmlns="http://www.w3.org/2000/svg" xmlns:xlink="http://www.w3.org/1999/xlink" x="0px" y="0px"
	 width="155.906px" height="155.906px" viewBox="0 0 155.906 155.906" enable-background="new 0 0 155.906 155.906"
	 xml:space="preserve">
<g>
	<path fill="#38AFCE" d="M115.59,50.613c-0.013,0-0.025,0.002-0.038,0.002c0.005-0.253,0.038-0.499,0.038-0.753
		c0-20.023-16.232-36.255-36.255-36.255c-20.023,0-36.255,16.232-36.255,36.255c0,0.024,0.004,0.046,0.004,0.07
		c-15.706,0.729-28.226,13.657-28.226,29.543c0,16.355,13.258,29.613,29.613,29.613h71.119c16.148,0,29.238-13.09,29.238-29.238
		C144.827,63.703,131.737,50.613,115.59,50.613z"/>
	<g>
		<g>
			<path fill="#ADDAE4" d="M37.173,92.844c-1.387,0-2.511-1.123-2.511-2.511V73.617c0-1.388,1.124-2.511,2.511-2.511
				c1.387,0,2.511,1.123,2.511,2.511v16.716C39.684,91.72,38.559,92.844,37.173,92.844z"/>
		</g>
		<g>
			<path fill="#ADDAE4" d="M37.173,140.845c-1.387,0-2.511-1.123-2.511-2.511v-34.317c0-1.388,1.124-2.511,2.511-2.511
				c1.387,0,2.511,1.123,2.511,2.511v34.317C39.684,139.722,38.559,140.845,37.173,140.845z"/>
		</g>
		<g>
			<path fill="#ADDAE4" d="M58.507,83.343c-1.387,0-2.511-1.123-2.511-2.511V56.46c0-1.388,1.124-2.511,2.511-2.511
				c1.387,0,2.511,1.123,2.511,2.511v24.372C61.019,82.22,59.894,83.343,58.507,83.343z"/>
		</g>
		<g>
			<path fill="#ADDAE4" d="M58.507,111.342c-1.387,0-2.511-1.123-2.511-2.511V92.951c0-1.388,1.124-2.511,2.511-2.511
				c1.387,0,2.511,1.123,2.511,2.511v15.879C61.019,110.219,59.894,111.342,58.507,111.342z"/>
		</g>
		<g>
			<path fill="#ADDAE4" d="M58.507,140.845c-1.387,0-2.511-1.123-2.511-2.511v-12.696c0-1.388,1.124-2.511,2.511-2.511
				c1.387,0,2.511,1.123,2.511,2.511v12.696C61.019,139.722,59.894,140.845,58.507,140.845z"/>
		</g>
		<g>
			<path fill="#ADDAE4" d="M79.842,140.845c-1.387,0-2.511-1.123-2.511-2.511v-34.317c0-1.388,1.124-2.511,2.511-2.511
				c1.387,0,2.511,1.123,2.511,2.511v34.317C82.353,139.722,81.229,140.845,79.842,140.845z"/>
		</g>
		<g>
			<path fill="#ADDAE4" d="M101.178,140.845c-1.387,0-2.511-1.123-2.511-2.511v-12.696c0-1.388,1.124-2.511,2.511-2.511
				c1.387,0,2.511,1.123,2.511,2.511v12.696C103.689,139.722,102.565,140.845,101.178,140.845z"/>
		</g>
		<g>
			<path fill="#ADDAE4" d="M122.513,140.845c-1.387,0-2.511-1.123-2.511-2.511v-26.265c0-1.388,1.124-2.511,2.511-2.511
				c1.387,0,2.511,1.123,2.511,2.511v26.265C125.024,139.722,123.9,140.845,122.513,140.845z"/>
		</g>
		<g>
			<path fill="#ADDAE4" d="M122.513,97.616c-1.387,0-2.511-1.123-2.511-2.511V83.203c0-1.388,1.124-2.511,2.511-2.511
				c1.387,0,2.511,1.123,2.511,2.511v11.902C125.024,96.493,123.9,97.616,122.513,97.616z"/>
		</g>
		<g>
			<path fill="#ADDAE4" d="M101.178,117.689c-1.387,0-2.511-1.123-2.511-2.511V64.067c0-1.388,1.124-2.511,2.511-2.511
				c1.387,0,2.511,1.123,2.511,2.511v51.111C103.689,116.566,102.565,117.689,101.178,117.689z"/>
		</g>
		<g>
			<path fill="#ADDAE4" d="M79.842,92.015c-1.387,0-2.511-1.123-2.511-2.511V74.446c0-1.388,1.124-2.511,2.511-2.511
				c1.387,0,2.511,1.123,2.511,2.511v15.058C82.353,90.891,81.229,92.015,79.842,92.015z"/>
		</g>
	</g>
</g>
<g>
</g>
<g>
</g>
<g>
</g>
<g>
</g>
<g>
</g>
<g>
</g>
</svg>
