<?xml version="1.0" encoding="utf-8"?>
<!-- Generator: Adobe Illustrator 17.0.0, SVG Export Plug-In . SVG Version: 6.00 Build 0)  -->
<!DOCTYPE svg PUBLIC "-//W3C//DTD SVG 1.1//EN" "http://www.w3.org/Graphics/SVG/1.1/DTD/svg11.dtd">
<svg version="1.1" id="Calque_1" xmlns="http://www.w3.org/2000/svg" xmlns:xlink="http://www.w3.org/1999/xlink" x="0px" y="0px"
	 width="155.906px" height="155.906px" viewBox="0 0 155.906 155.906" enable-background="new 0 0 155.906 155.906"
	 xml:space="preserve">
<g>
	<path fill="#82CCE1" d="M95.768,52.426c-0.011,0-0.023,0.002-0.034,0.002c0.005-0.225,0.034-0.444,0.034-0.671
		c0-17.831-14.455-32.285-32.285-32.285c-17.831,0-32.285,14.455-32.285,32.285c0,0.021,0.003,0.041,0.003,0.062
		C17.214,52.469,6.065,63.98,6.065,78.128c0,14.564,11.807,26.371,26.371,26.371h63.332c14.38,0,26.036-11.657,26.036-26.036
		C121.804,64.083,110.148,52.426,95.768,52.426z"/>
	<path fill="#38AFCE" d="M125.267,81.017c-0.011,0-0.022,0.002-0.034,0.002c0.005-0.225,0.034-0.444,0.034-0.671
		c0-17.831-14.455-32.285-32.285-32.285c-17.831,0-32.285,14.455-32.285,32.285c0,0.021,0.003,0.041,0.003,0.062
		c-13.987,0.65-25.136,12.161-25.136,26.309c0,14.564,11.807,26.371,26.371,26.371h63.332c14.38,0,26.036-11.657,26.036-26.036
		C151.304,92.674,139.647,81.017,125.267,81.017z"/>
</g>
<g>
</g>
<g>
</g>
<g>
</g>
<g>
</g>
<g>
</g>
<g>
</g>
</svg>
