<?xml version="1.0" encoding="utf-8"?>
<!-- Generator: Adobe Illustrator 17.0.0, SVG Export Plug-In . SVG Version: 6.00 Build 0)  -->
<!DOCTYPE svg PUBLIC "-//W3C//DTD SVG 1.1//EN" "http://www.w3.org/Graphics/SVG/1.1/DTD/svg11.dtd">
<svg version="1.1" id="Calque_1" xmlns="http://www.w3.org/2000/svg" xmlns:xlink="http://www.w3.org/1999/xlink" x="0px" y="0px"
	 width="155.906px" height="155.906px" viewBox="0 0 155.906 155.906" enable-background="new 0 0 155.906 155.906"
	 xml:space="preserve">
<g>
	<path fill="#38AFCE" d="M114.64,49.607c-0.013,0-0.025,0.002-0.038,0.002c0.005-0.253,0.038-0.499,0.038-0.753
		c0-20.023-16.232-36.255-36.255-36.255c-20.023,0-36.255,16.232-36.255,36.255c0,0.024,0.004,0.046,0.004,0.07
		c-15.706,0.729-28.226,13.657-28.226,29.543c0,16.355,13.258,29.613,29.613,29.613h71.119c16.148,0,29.238-13.09,29.238-29.238
		C143.877,62.697,130.787,49.607,114.64,49.607z"/>
	<g>
		<path fill="#ADDAE4" d="M27.386,140.895c-0.682,0-1.372-0.184-1.993-0.573c-1.764-1.102-2.3-3.426-1.198-5.19l29.268-46.83
			c1.104-1.766,3.427-2.302,5.191-1.198c1.764,1.102,2.3,3.426,1.198,5.191l-29.268,46.83
			C29.869,140.269,28.641,140.895,27.386,140.895z"/>
	</g>
	<g>
		<path fill="#ADDAE4" d="M88.061,140.895c-0.682,0-1.372-0.185-1.993-0.573c-1.764-1.102-2.3-3.426-1.198-5.19l20.744-33.19
			c1.104-1.768,3.43-2.298,5.19-1.198c1.763,1.102,2.3,3.426,1.199,5.19l-20.745,33.19
			C90.544,140.269,89.317,140.895,88.061,140.895z"/>
	</g>
	<g>
		<path fill="#ADDAE4" d="M56.654,140.895c-0.674,0-1.359-0.182-1.975-0.562c-1.769-1.093-2.319-3.414-1.226-5.185L94.429,68.77
			c1.094-1.768,3.411-2.317,5.184-1.226c1.769,1.092,2.319,3.414,1.226,5.184l-40.976,66.38
			C59.151,140.26,57.917,140.895,56.654,140.895z"/>
	</g>
</g>
<g>
</g>
<g>
</g>
<g>
</g>
<g>
</g>
<g>
</g>
<g>
</g>
</svg>
