<?xml version="1.0" encoding="utf-8"?>
<!-- Generator: Adobe Illustrator 17.0.0, SVG Export Plug-In . SVG Version: 6.00 Build 0)  -->
<!DOCTYPE svg PUBLIC "-//W3C//DTD SVG 1.1//EN" "http://www.w3.org/Graphics/SVG/1.1/DTD/svg11.dtd">
<svg version="1.1" id="Calque_1" xmlns="http://www.w3.org/2000/svg" xmlns:xlink="http://www.w3.org/1999/xlink" x="0px" y="0px"
	 width="155.906px" height="155.906px" viewBox="0 0 155.906 155.906" enable-background="new 0 0 155.906 155.906"
	 xml:space="preserve">
<g>
	<circle fill="#F8AF40" cx="80.541" cy="75.876" r="29.888"/>
	<g>
		<path fill="#F8AF40" d="M80.541,37.886c-2.081,0-3.767-1.686-3.767-3.767V17.728c0-2.081,1.686-3.767,3.767-3.767
			c2.081,0,3.767,1.686,3.767,3.767v16.391C84.308,36.2,82.622,37.886,80.541,37.886z"/>
	</g>
	<g>
		<path fill="#F8AF40" d="M80.541,138.62c-2.081,0-3.767-1.686-3.767-3.767v-16.391c0-2.081,1.686-3.767,3.767-3.767
			c2.081,0,3.767,1.686,3.767,3.767v16.391C84.308,136.934,82.622,138.62,80.541,138.62z"/>
	</g>
	<g>
		<path fill="#F8AF40" d="M139.103,80.058h-16.391c-2.081,0-3.767-1.686-3.767-3.767c0-2.081,1.686-3.767,3.767-3.767h16.391
			c2.081,0,3.767,1.686,3.767,3.767C142.87,78.372,141.184,80.058,139.103,80.058z"/>
	</g>
	<g>
		<path fill="#F8AF40" d="M21.978,80.058h16.391c2.081,0,3.767-1.686,3.767-3.767c0-2.081-1.686-3.767-3.767-3.767H21.978
			c-2.081,0-3.767,1.686-3.767,3.767C18.211,78.372,19.897,80.058,21.978,80.058z"/>
	</g>
	<g>
		<path fill="#F8AF40" d="M50.721,50.237c-0.964,0-1.928-0.368-2.663-1.104l-11.59-11.59c-1.471-1.47-1.471-3.856,0-5.327
			c1.471-1.471,3.855-1.471,5.327,0l11.59,11.59c1.471,1.47,1.471,3.856,0,5.327C52.648,49.87,51.685,50.237,50.721,50.237z"/>
	</g>
	<g>
		<path fill="#F8AF40" d="M121.95,121.468c-0.964,0-1.928-0.368-2.663-1.104l-11.589-11.59c-1.471-1.471-1.471-3.856,0-5.327
			c1.471-1.472,3.855-1.472,5.327,0l11.589,11.59c1.471,1.471,1.471,3.856,0,5.327C123.878,121.1,122.914,121.468,121.95,121.468z"
			/>
	</g>
	<g>
		<path fill="#F8AF40" d="M39.131,121.468c-0.964,0-1.928-0.368-2.663-1.104c-1.471-1.47-1.471-3.856,0-5.327l11.59-11.59
			c1.472-1.472,3.855-1.472,5.327,0c1.471,1.47,1.471,3.856,0,5.327l-11.59,11.59C41.058,121.1,40.094,121.468,39.131,121.468z"/>
	</g>
	<g>
		<path fill="#F8AF40" d="M110.361,50.237c-0.964,0-1.928-0.368-2.663-1.104c-1.471-1.47-1.471-3.855,0-5.327l11.589-11.59
			c1.469-1.471,3.855-1.471,5.327,0c1.471,1.47,1.471,3.855,0,5.327l-11.589,11.59C112.29,49.87,111.325,50.237,110.361,50.237z"/>
	</g>
</g>
<g>
</g>
<g>
</g>
<g>
</g>
<g>
</g>
<g>
</g>
<g>
</g>
</svg>
